<svg width="67" height="62" viewBox="0 0 67 62" fill="none" xmlns="http://www.w3.org/2000/svg">
<path d="M34.6857 61.4667C35.4957 61.6403 36.2931 61.1243 36.4667 60.3143L39.2953 47.114C39.4689 46.3039 38.953 45.5065 38.1429 45.333C37.3329 45.1594 36.5355 45.6753 36.3619 46.4854L33.8476 58.219L22.114 55.7047C21.3039 55.5311 20.5065 56.047 20.333 56.8571C20.1594 57.6671 20.6753 58.4645 21.4854 58.6381L34.6857 61.4667ZM0.740645 9.81488L33.7406 60.8149L36.2594 59.1851L3.25936 8.18512L0.740645 9.81488Z" fill="black"/>
<path d="M35.7021 0.551013C34.9019 0.3366 34.0794 0.811474 33.8649 1.61167L30.3709 14.6517C30.1565 15.4519 30.6314 16.2744 31.4316 16.4888C32.2317 16.7032 33.0543 16.2283 33.2687 15.4281L36.3745 3.83702L47.9656 6.94285C48.7658 7.15726 49.5883 6.68239 49.8027 5.88219C50.0171 5.08199 49.5423 4.25948 48.7421 4.04507L35.7021 0.551013ZM66.9856 53.8569L36.6129 1.2499L34.0148 2.7499L64.3875 55.3569L66.9856 53.8569Z" fill="black"/>
</svg>
