<svg width="1098" height="250" viewBox="0 0 1098 250" fill="none" xmlns="http://www.w3.org/2000/svg">
<circle cx="125" cy="125" r="125" fill="#342D61"/>
<circle cx="125" cy="125" r="40" fill="#342D61"/>
<circle cx="125" cy="125" r="40" fill="white"/>
<circle cx="125" cy="125" r="20" fill="white" stroke="#342D61" stroke-width="10"/>
<line y1="125" x2="250" y2="125" stroke="white" stroke-width="10"/>
<path d="M329.79 172V81H369.18C377.327 81 384.347 82.3433 390.24 85.03C396.133 87.63 400.683 91.4 403.89 96.34C407.097 101.28 408.7 107.173 408.7 114.02C408.7 120.78 407.097 126.63 403.89 131.57C400.683 136.51 396.133 140.323 390.24 143.01C384.347 145.61 377.327 146.91 369.18 146.91H341.49L350.85 137.42V172H329.79ZM350.85 139.76L341.49 129.75H368.01C374.51 129.75 379.363 128.363 382.57 125.59C385.777 122.817 387.38 118.96 387.38 114.02C387.38 108.993 385.777 105.093 382.57 102.32C379.363 99.5467 374.51 98.16 368.01 98.16H341.49L350.85 88.15V139.76ZM455.458 173.04C448.005 173.04 441.375 171.48 435.568 168.36C429.848 165.24 425.298 160.993 421.918 155.62C418.625 150.16 416.978 143.963 416.978 137.03C416.978 130.01 418.625 123.813 421.918 118.44C425.298 112.98 429.848 108.733 435.568 105.7C441.375 102.58 448.005 101.02 455.458 101.02C462.825 101.02 469.412 102.58 475.218 105.7C481.025 108.733 485.575 112.937 488.868 118.31C492.162 123.683 493.808 129.923 493.808 137.03C493.808 143.963 492.162 150.16 488.868 155.62C485.575 160.993 481.025 165.24 475.218 168.36C469.412 171.48 462.825 173.04 455.458 173.04ZM455.458 156.4C458.838 156.4 461.872 155.62 464.558 154.06C467.245 152.5 469.368 150.29 470.928 147.43C472.488 144.483 473.268 141.017 473.268 137.03C473.268 132.957 472.488 129.49 470.928 126.63C469.368 123.77 467.245 121.56 464.558 120C461.872 118.44 458.838 117.66 455.458 117.66C452.078 117.66 449.045 118.44 446.358 120C443.672 121.56 441.505 123.77 439.858 126.63C438.298 129.49 437.518 132.957 437.518 137.03C437.518 141.017 438.298 144.483 439.858 147.43C441.505 150.29 443.672 152.5 446.358 154.06C449.045 155.62 452.078 156.4 455.458 156.4ZM524.134 157.7L524.654 133L557.284 102.06H581.464L550.134 133.91L539.604 142.49L524.134 157.7ZM507.364 172V75.54H527.644V172H507.364ZM559.494 172L535.834 142.62L548.574 126.89L584.064 172H559.494ZM624.974 173.04C617.001 173.04 609.981 171.48 603.914 168.36C597.934 165.24 593.298 160.993 590.004 155.62C586.711 150.16 585.064 143.963 585.064 137.03C585.064 130.01 586.668 123.813 589.874 118.44C593.168 112.98 597.631 108.733 603.264 105.7C608.898 102.58 615.268 101.02 622.374 101.02C629.221 101.02 635.374 102.493 640.834 105.44C646.381 108.3 650.758 112.46 653.964 117.92C657.171 123.293 658.774 129.75 658.774 137.29C658.774 138.07 658.731 138.98 658.644 140.02C658.558 140.973 658.471 141.883 658.384 142.75H601.574V130.92H647.724L639.924 134.43C639.924 130.79 639.188 127.627 637.714 124.94C636.241 122.253 634.204 120.173 631.604 118.7C629.004 117.14 625.971 116.36 622.504 116.36C619.038 116.36 615.961 117.14 613.274 118.7C610.674 120.173 608.638 122.297 607.164 125.07C605.691 127.757 604.954 130.963 604.954 134.69V137.81C604.954 141.623 605.778 145.003 607.424 147.95C609.158 150.81 611.541 153.02 614.574 154.58C617.694 156.053 621.334 156.79 625.494 156.79C629.221 156.79 632.471 156.227 635.244 155.1C638.104 153.973 640.704 152.283 643.044 150.03L653.834 161.73C650.628 165.37 646.598 168.187 641.744 170.18C636.891 172.087 631.301 173.04 624.974 173.04Z" fill="#342D61"/>
<path d="M673.706 172V81H713.096C721.243 81 728.263 82.3433 734.156 85.03C740.049 87.63 744.599 91.4 747.806 96.34C751.013 101.28 752.616 107.173 752.616 114.02C752.616 120.78 751.013 126.63 747.806 131.57C744.599 136.423 740.049 140.15 734.156 142.75C728.263 145.35 721.243 146.65 713.096 146.65H685.406L694.766 137.42V172H673.706ZM731.556 172L708.806 138.98H731.296L754.306 172H731.556ZM694.766 139.76L685.406 129.88H711.926C718.426 129.88 723.279 128.493 726.486 125.72C729.693 122.86 731.296 118.96 731.296 114.02C731.296 108.993 729.693 105.093 726.486 102.32C723.279 99.5467 718.426 98.16 711.926 98.16H685.406L694.766 88.15V139.76ZM802.582 173.04C794.608 173.04 787.588 171.48 781.522 168.36C775.542 165.24 770.905 160.993 767.612 155.62C764.318 150.16 762.672 143.963 762.672 137.03C762.672 130.01 764.275 123.813 767.482 118.44C770.775 112.98 775.238 108.733 780.872 105.7C786.505 102.58 792.875 101.02 799.982 101.02C806.828 101.02 812.982 102.493 818.442 105.44C823.988 108.3 828.365 112.46 831.572 117.92C834.778 123.293 836.382 129.75 836.382 137.29C836.382 138.07 836.338 138.98 836.252 140.02C836.165 140.973 836.078 141.883 835.992 142.75H779.182V130.92H825.332L817.532 134.43C817.532 130.79 816.795 127.627 815.322 124.94C813.848 122.253 811.812 120.173 809.212 118.7C806.612 117.14 803.578 116.36 800.112 116.36C796.645 116.36 793.568 117.14 790.882 118.7C788.282 120.173 786.245 122.297 784.772 125.07C783.298 127.757 782.562 130.963 782.562 134.69V137.81C782.562 141.623 783.385 145.003 785.032 147.95C786.765 150.81 789.148 153.02 792.182 154.58C795.302 156.053 798.942 156.79 803.102 156.79C806.828 156.79 810.078 156.227 812.852 155.1C815.712 153.973 818.312 152.283 820.652 150.03L831.442 161.73C828.235 165.37 824.205 168.187 819.352 170.18C814.498 172.087 808.908 173.04 802.582 173.04ZM879.913 173.04C873.327 173.04 867.39 171.567 862.103 168.62C856.817 165.587 852.613 161.383 849.493 156.01C846.46 150.637 844.943 144.31 844.943 137.03C844.943 129.663 846.46 123.293 849.493 117.92C852.613 112.547 856.817 108.387 862.103 105.44C867.39 102.493 873.327 101.02 879.913 101.02C885.807 101.02 890.963 102.32 895.383 104.92C899.803 107.52 903.227 111.463 905.653 116.75C908.08 122.037 909.293 128.797 909.293 137.03C909.293 145.177 908.123 151.937 905.783 157.31C903.443 162.597 900.063 166.54 895.643 169.14C891.31 171.74 886.067 173.04 879.913 173.04ZM883.423 156.4C886.717 156.4 889.707 155.62 892.393 154.06C895.08 152.5 897.203 150.29 898.763 147.43C900.41 144.483 901.233 141.017 901.233 137.03C901.233 132.957 900.41 129.49 898.763 126.63C897.203 123.77 895.08 121.56 892.393 120C889.707 118.44 886.717 117.66 883.423 117.66C880.043 117.66 877.01 118.44 874.323 120C871.637 121.56 869.47 123.77 867.823 126.63C866.263 129.49 865.483 132.957 865.483 137.03C865.483 141.017 866.263 144.483 867.823 147.43C869.47 150.29 871.637 152.5 874.323 154.06C877.01 155.62 880.043 156.4 883.423 156.4ZM901.753 172V157.7L902.143 136.9L900.843 116.23V75.54H921.123V172H901.753ZM969.403 173.04C963.597 173.04 958.397 171.913 953.803 169.66C949.297 167.407 945.787 163.983 943.273 159.39C940.76 154.71 939.503 148.773 939.503 141.58V102.06H959.783V138.59C959.783 144.397 960.997 148.687 963.423 151.46C965.937 154.147 969.447 155.49 973.953 155.49C977.073 155.49 979.847 154.84 982.273 153.54C984.7 152.153 986.607 150.073 987.993 147.3C989.38 144.44 990.073 140.887 990.073 136.64V102.06H1010.35V172H991.113V152.76L994.623 158.35C992.283 163.203 988.817 166.887 984.223 169.4C979.717 171.827 974.777 173.04 969.403 173.04ZM1020.3 172L1051.63 130.92L1051.24 142.1L1021.21 102.06H1043.96L1062.94 128.19L1054.36 128.45L1073.99 102.06H1095.57L1065.41 141.71V130.79L1096.61 172H1073.6L1053.71 144.18L1062.16 145.35L1042.4 172H1020.3Z" fill="#160F42"/>
</svg>
